PathFileType	4	(X/Y/Z)	D:\TRACE\v60_Jaco2_6-2-23\BothDRS_Motion3_9-v60.trc
DataRate	CameraRate	NumFrames	NumMarkers	Units	OrigDataRate	OrigDataStartFrame	OrigNumFrames
100.00	100.00	      21	9	mm	100.00	876	      7000
Frame#	Time	front left toe			Front right toe			aft left toe			aft right toe			Arm			FL body			FR body			AL Body			AR Body			
		X1	Y1	Z1	X2	Y2	Z2	X3	Y3	Z3	X4	Y4	Z4	X5	Y5	Z5	X6	Y6	Z6	X7	Y7	Z7	X8	Y8	Z8	X9	Y9	Z9	

876	8.750	-165.99348	120.17773	-144.71977	215.75099	1.80736	-166.49956	-150.14636	42.07245	462.38559	220.69780	160.36800	467.05792	30.22272	1142.36377	-322.94821	-56.80487	503.45432	-326.69583	102.00986	503.94659	-330.04123	-32.08518	591.66132	613.82104	119.75572	582.27588	610.40912	
877	8.760	-165.60905	114.17287	-143.50581	215.94119	1.97291	-166.30432	-150.74011	42.29263	462.54495	220.49088	154.76118	468.35437	30.66261	1142.40857	-322.08380	-56.42492	503.31137	-326.48755	102.30790	504.02936	-329.47714	-32.95897	591.76648	614.43195	119.02057	582.26019	610.43756	
878	8.770	-165.13748	107.31320	-142.84177	215.91554	2.03322	-166.17000	-150.27417	41.86331	462.59589	219.64973	148.14270	469.23450	31.33834	1142.48462	-321.20206	-56.24839	503.30005	-326.15204	102.51359	504.06674	-328.82050	-33.43819	591.75671	614.88202	118.97529	582.10211	610.93378	
879	8.780	-164.53992	99.32189	-142.61598	215.93193	2.08385	-166.13293	-150.20813	41.73519	462.65091	219.13556	140.33716	470.56653	31.94626	1142.65796	-320.14230	-55.88474	503.30112	-325.60010	102.74323	504.14984	-328.30185	-34.10690	591.71259	615.28656	118.15688	582.16382	612.22864	
880	8.790	-164.51617	90.78107	-142.53471	216.03735	2.14784	-166.00558	-150.20915	41.52656	462.62170	218.42963	131.12787	471.57779	31.90585	1142.88831	-319.37778	-55.60082	503.41177	-325.10968	103.21573	504.39929	-327.62625	-34.58117	591.50098	615.96863	119.37804	582.10956	613.56018	
881	8.800	-164.48502	80.81620	-142.46831	216.02052	2.22606	-165.86702	-150.51859	41.31000	462.57727	217.80084	120.80206	472.25214	31.22467	1143.15295	-318.78162	-55.52777	503.62939	-324.71915	103.41637	504.50165	-327.20764	-35.32071	591.28693	616.33380	118.00277	581.62524	613.53467	
882	8.810	-164.42508	69.98612	-141.87915	216.11456	2.30873	-165.71066	-150.62750	40.93866	462.56870	218.03214	109.66097	473.23438	30.63059	1143.08435	-318.11316	-55.43579	503.72330	-324.40494	103.07562	504.69986	-326.40814	-36.25971	591.00226	616.67859	116.42191	581.21075	614.09100	
883	8.820	-164.76068	59.57315	-141.29614	216.17661	2.40463	-165.52617	-150.74980	40.62897	462.66116	217.00148	97.88098	474.24109	30.37328	1143.11853	-317.53473	-55.03469	503.81842	-323.81476	103.32281	504.73465	-325.58542	-36.75025	590.52020	617.46332	115.45406	580.92633	614.61475	
884	8.830	-165.13223	49.03915	-140.10765	216.10091	2.37150	-165.48512	-151.21967	40.94184	462.88541	216.06331	86.80799	475.21515	30.27515	1143.22961	-316.93997	-54.93476	503.83139	-323.46100	103.93518	504.77173	-325.48947	-37.28541	590.25427	618.00226	114.98888	580.48804	615.35101	
885	8.840	-165.31140	38.50517	-138.72232	216.04224	2.38428	-165.46239	-151.26653	40.86605	462.85818	214.96359	77.29952	475.76105	30.67660	1143.20313	-316.19040	-55.01052	503.89987	-322.74686	103.27129	504.91281	-324.89542	-38.07212	590.42169	618.64673	114.63670	580.29340	615.85339	
886	8.850	-165.52315	28.49911	-137.89217	216.06914	2.41170	-165.42067	-151.31342	40.81457	462.91647	213.80489	67.28453	476.60822	31.19630	1143.38599	-315.34625	-55.04880	503.91852	-322.33319	103.29022	504.92941	-324.08081	-38.69646	589.85223	618.78058	113.86454	580.06799	616.29163	
887	8.860	-165.89929	19.94267	-137.72995	216.02882	2.42801	-165.40184	-151.38086	40.65793	463.00845	213.33125	59.07924	477.12579	31.75274	1143.27332	-314.41818	-54.87436	503.93823	-322.29227	103.21561	504.96957	-323.56818	-39.44486	589.67633	619.09741	113.22579	579.65887	616.34528	
888	8.870	-166.35635	11.86118	-137.40067	216.07249	2.52689	-165.31084	-151.45039	40.40152	463.18881	212.79672	50.86006	477.44543	31.94510	1143.34961	-313.56824	-55.01369	503.89447	-321.99768	103.06329	504.89169	-323.26022	-40.01929	588.61438	618.65167	112.43941	579.46283	617.42029	
889	8.880	-166.64919	5.68386	-137.59048	216.07265	2.57325	-165.27869	-151.45602	40.18734	463.21970	212.51045	44.25128	477.66522	31.95402	1143.45862	-313.01120	-55.04802	503.85370	-321.68536	103.16000	504.81000	-322.90067	-40.77357	588.24756	619.15436	110.93920	579.29266	617.80243	
890	8.890	-167.80898	7.49229	-139.99998	215.81477	2.52322	-165.25015	-151.45825	40.00085	463.25113	212.24127	42.53024	475.61206	31.64178	1143.29370	-312.45245	-54.97892	504.06909	-321.26526	103.30093	504.80234	-322.22971	-41.19672	587.73236	619.57330	110.63889	578.77466	618.00397	
891	8.900	-168.38849	6.31416	-139.77264	214.47496	2.27910	-165.39658	-151.43488	40.04549	463.27640	212.45480	40.19796	477.04236	31.41072	1143.46497	-312.05960	-54.59565	504.27725	-320.53229	103.53044	505.35782	-321.45700	-42.12135	588.13715	620.25818	110.57819	579.27631	619.15930	
892	8.910	-167.97296	4.36511	-138.59981	214.29539	2.29260	-165.51698	-151.40373	40.18260	463.28009	212.77281	40.48741	474.99469	31.44367	1143.82739	-311.62582	-54.42521	504.77911	-320.04010	103.81834	505.71741	-320.90118	-43.03434	589.45172	620.58521	108.30950	580.75427	619.64502	
893	8.920	-168.11229	5.95551	-138.70691	214.05380	3.57563	-165.53343	-151.46562	40.71421	463.02567	212.46747	40.55512	476.74963	31.62662	1144.81201	-311.29617	-54.22208	505.05658	-319.50128	104.01428	506.20493	-320.06592	-44.05637	590.58704	621.11682	108.23135	582.41705	620.53931	
894	8.930	-168.17819	5.80021	-139.16226	213.31262	6.90451	-163.49954	-149.46399	42.74556	464.57663	212.39215	39.76842	476.98074	31.75459	1145.38220	-311.24426	-53.86172	505.62003	-318.88153	104.94788	506.55023	-319.37592	-45.00804	591.85339	621.69269	105.91993	583.77313	621.08966	
895	8.940	-168.33849	4.48595	-138.73160	210.86148	9.78951	-159.43692	-147.65492	47.20528	467.14389	212.19719	39.45393	476.58151	31.56165	1145.89819	-311.55606	-53.25987	505.87732	-318.24448	105.50846	507.11084	-318.60483	-45.75915	592.74811	622.16132	107.19948	584.50958	622.42859	
896	8.950	-168.26192	4.56178	-138.45601	207.73119	18.20526	-157.40442	-144.44708	56.28874	467.85001	212.10527	39.70356	477.21225	31.35464	1145.92603	-311.64874	-53.18553	506.27060	-317.87936	104.92503	507.69568	-317.89474	-46.40909	593.21051	622.71735	105.72611	584.77655	622.38367	
